<svg version="1.1" xmlns="http://www.w3.org/2000/svg" xmlns:xlink="http://www.w3.org/1999/xlink" width="604" height="479.35527" viewBox="0,0,604,479.35527"><defs><linearGradient x1="255.37874" y1="-11.69996" x2="255.37874" y2="368.30005" gradientUnits="userSpaceOnUse" id="color-1"><stop offset="0" stop-color="#fff700"/><stop offset="1" stop-color="#ff4a00"/></linearGradient><linearGradient x1="87.12874" y1="85.30006" x2="87.12874" y2="109.30006" gradientTransform="translate(-86.75748,-206.60011) scale(2,2)" gradientUnits="userSpaceOnUse" id="color-2"><stop offset="0" stop-color="#ff0000"/><stop offset="1" stop-color="#ff4a00"/></linearGradient><linearGradient x1="402.12385" y1="242.64287" x2="401.23656" y2="151.6472" gradientUnits="userSpaceOnUse" id="color-3"><stop offset="0.012" stop-color="#66b3e3"/><stop offset="1" stop-color="#1c75bc"/></linearGradient></defs><g transform="translate(46.62126,16.08599)"><g data-paper-data="{&quot;isPaintingLayer&quot;:true}" fill-rule="nonzero" stroke-linejoin="miter" stroke-miterlimit="10" stroke-dasharray="" stroke-dashoffset="0" style="mix-blend-mode: normal"><path d="M-46.62126,368.30005v-380h604v380z" fill="url(#color-1)" stroke="none" stroke-width="0" stroke-linecap="butt"/><path d="M99.1421,460.51928v-9.00901h10.51051v9.00901z" fill="none" stroke="#585e61" stroke-width="5.5" stroke-linecap="butt"/><path d="M157.07875,170.40004c0,69.31173 -33.8025,125.5 -75.5,125.5c-41.6975,0 -75.5,-56.18827 -75.5,-125.5c0,-69.31173 33.8025,-125.5 75.5,-125.5c41.6975,0 75.5,56.18827 75.5,125.5z" fill="#00fff3" stroke="none" stroke-width="0" stroke-linecap="butt"/><path d="M469.07875,168.40003c0,72.62544 -31.11621,131.5 -69.5,131.5c-38.38379,0 -69.5,-58.87456 -69.5,-131.5c0,-72.62544 31.11621,-131.5 69.5,-131.5c38.38379,0 69.5,58.87456 69.5,131.5z" fill="#00fff3" stroke="none" stroke-width="0" stroke-linecap="butt"/><text transform="translate(43.37874,103.30005) scale(0.5,0.5)" font-size="40" xml:space="preserve" fill="url(#color-2)" fill-rule="nonzero" stroke="none" stroke-width="1" stroke-linecap="butt" stroke-linejoin="miter" stroke-miterlimit="10" stroke-dasharray="" stroke-dashoffset="0" font-family="Pixel" font-weight="normal" text-anchor="start" style="mix-blend-mode: normal"><tspan x="0" dy="0">MASTER</tspan></text><text transform="translate(374.37874,99.30005) scale(0.5,0.5)" font-size="40" xml:space="preserve" fill="#ffcc00" fill-rule="nonzero" stroke="none" stroke-width="1" stroke-linecap="butt" stroke-linejoin="miter" stroke-miterlimit="10" stroke-dasharray="" stroke-dashoffset="0" font-family="Pixel" font-weight="normal" text-anchor="start" style="mix-blend-mode: normal"><tspan x="0" dy="0">CARS</tspan></text><g><path d="M419.96647,151.46445c4.75177,-0.04633 8.64217,3.76991 8.68849,8.52069l0.7195,73.78849c0.04633,4.75177 -3.76992,8.64117 -8.5207,8.68749l-37.46122,0.36528c-4.75177,0.04633 -8.64115,-3.76792 -8.68748,-8.5197l-0.71949,-73.78749c-0.04635,-4.75377 3.76791,-8.64215 8.51969,-8.68848l37.46122,-0.36528z" data-paper-data="{&quot;index&quot;:null}" fill="url(#color-3)" stroke="none" stroke-width="1" stroke-linecap="butt"/><path d="M382.53855,155.24454l37.46022,-0.36527c2.86186,-0.02791 5.21244,2.27628 5.24037,5.14015l0.71949,73.78749c0.0279,2.86086 -2.27728,5.21245 -5.13915,5.24036l-37.46122,0.36528c-2.86186,0.02791 -5.21246,-2.27828 -5.24036,-5.13915l-0.71949,-73.78749c-0.02793,-2.86386 2.27827,-5.21346 5.14014,-5.24137z" data-paper-data="{&quot;index&quot;:null}" fill="#27aae1" stroke="none" stroke-width="1" stroke-linecap="butt"/><path d="M401.11337,152.60626l1.72154,40.82216" data-paper-data="{&quot;index&quot;:null}" fill="none" stroke="#000000" stroke-width="5" stroke-linecap="round"/><path d="M427.25385,196.40449l-52.94541,-0.61815" data-paper-data="{&quot;index&quot;:null}" fill="none" stroke="#000000" stroke-width="5" stroke-linecap="round"/></g><text transform="translate(116.6436,44.12922) scale(1.18301,1.18301)" font-size="40" xml:space="preserve" fill="#00e7ff" fill-rule="nonzero" stroke="none" stroke-width="1" stroke-linecap="butt" stroke-linejoin="miter" stroke-miterlimit="10" stroke-dasharray="" stroke-dashoffset="0" font-family="Pixel" font-weight="normal" text-anchor="start" style="mix-blend-mode: normal"><tspan x="0" dy="0">COIN VERSE</tspan></text><text transform="translate(193.07875,68.90003) scale(0.5,0.5)" font-size="40" xml:space="preserve" fill="#00daff" fill-rule="nonzero" stroke="none" stroke-width="1" stroke-linecap="butt" stroke-linejoin="miter" stroke-miterlimit="10" stroke-dasharray="" stroke-dashoffset="0" font-family="Pixel" font-weight="normal" text-anchor="start" style="mix-blend-mode: normal"><tspan x="0" dy="0">SEASON 1</tspan></text><g stroke="#fa0000" stroke-width="5"><path d="M93.74935,154.79671c0,9.66498 -4.92487,17.5 -11,17.5c-6.07513,0 -11,-7.83502 -11,-17.5c0,-9.66498 4.92487,-17.5 11,-17.5c6.07513,0 11,7.83502 11,17.5z" fill="#1000ff" stroke-linecap="butt"/><path d="M94.74935,258.2967l-23,-17l4,-69" fill="none" stroke-linecap="round"/><path d="M76.74935,188.29671l14,-1l-4,16l-13,2" fill="none" stroke-linecap="round"/><path d="M73.74935,241.2967l-11,19" fill="none" stroke-linecap="round"/></g></g></g></svg>