<svg version="1.1" xmlns="http://www.w3.org/2000/svg" xmlns:xlink="http://www.w3.org/1999/xlink" width="64.46386" height="144.4067" viewBox="0,0,64.46386,144.4067"><g transform="translate(-210.52433,-116)"><g data-paper-data="{&quot;isPaintingLayer&quot;:true}" fill-rule="nonzero" stroke-linejoin="miter" stroke-miterlimit="10" stroke-dasharray="" stroke-dashoffset="0" style="mix-blend-mode: normal"><path d="M257.50561,136c0,9.66498 -4.92487,17.5 -11,17.5c-6.07513,0 -11,-7.83502 -11,-17.5c0,-9.66498 4.92487,-17.5 11,-17.5c6.07513,0 11,7.83502 11,17.5z" fill="#ffec00" stroke="#002dff" stroke-width="5" stroke-linecap="butt"/><path d="M258.50561,239.5l-23,-17l4,-69" fill="none" stroke="#002dff" stroke-width="5" stroke-linecap="round"/><path d="M240.50562,169.5l14,-1l-4,16l-13,2" fill="none" stroke="#002dff" stroke-width="5" stroke-linecap="round"/><path d="M237.50562,222.5l-11,19" fill="none" stroke="#002dff" stroke-width="5" stroke-linecap="round"/><path d="M274.9882,243.46356c0,2.45534 -14.43073,4.44578 -32.23193,4.44578c-17.8012,0 -32.23193,-1.99044 -32.23193,-4.44578c0,-2.45534 14.43073,-4.44578 32.23193,-4.44578c17.8012,0 32.23193,1.99044 32.23193,4.44578z" fill="#002dff" stroke="none" stroke-width="0" stroke-linecap="butt"/><path d="M232.63758,247.01805l-7.59375,10.96875l-6.1875,-10.6875z" fill="#ffab00" stroke="#ffab00" stroke-width="2" stroke-linecap="round"/><path d="M263.94179,247.57227l-7.59375,10.96875l-6.1875,-10.6875z" fill="#ffab00" stroke="#ffab00" stroke-width="2" stroke-linecap="round"/><path d="M256.9684,125.4445l-22.36364,0.58852l-10.5933,-1.17703" fill="none" stroke="#000000" stroke-width="5" stroke-linecap="round"/></g></g></svg>