<svg version="1.1" xmlns="http://www.w3.org/2000/svg" xmlns:xlink="http://www.w3.org/1999/xlink" width="64.46386" height="144.4067" viewBox="0,0,64.46386,144.4067"><g transform="translate(-207.76807,-107.79666)"><g data-paper-data="{&quot;isPaintingLayer&quot;:true}" fill-rule="nonzero" stroke-linejoin="miter" stroke-miterlimit="10" stroke-dasharray="" stroke-dashoffset="0" style="mix-blend-mode: normal"><path d="M254.74935,127.79667c0,9.66498 -4.92487,17.5 -11,17.5c-6.07513,0 -11,-7.83502 -11,-17.5c0,-9.66498 4.92487,-17.5 11,-17.5c6.07513,0 11,7.83502 11,17.5z" fill="#00ffda" stroke="#ffc600" stroke-width="5" stroke-linecap="butt"/><path d="M255.74935,231.29667l-23,-17l4,-69" fill="none" stroke="#ffc600" stroke-width="5" stroke-linecap="round"/><path d="M237.74935,161.29665l14,-1l-4,16l-13,2" fill="none" stroke="#ffc600" stroke-width="5" stroke-linecap="round"/><path d="M234.74935,214.29667l-11,19" fill="none" stroke="#ffc600" stroke-width="5" stroke-linecap="round"/><path d="M272.23193,235.26023c0,2.45534 -14.43073,4.44578 -32.23193,4.44578c-17.8012,0 -32.23193,-1.99044 -32.23193,-4.44578c0,-2.45534 14.43073,-4.44578 32.23193,-4.44578c17.8012,0 32.23193,1.99044 32.23193,4.44578z" fill="#ffc600" stroke="none" stroke-width="0" stroke-linecap="butt"/><path d="M229.88131,238.81471l-7.59375,10.96875l-6.1875,-10.6875z" fill="#ffc600" stroke="#ffc600" stroke-width="2" stroke-linecap="round"/><path d="M261.18552,239.36894l-7.59375,10.96875l-6.1875,-10.6875z" fill="#ffc600" stroke="#ffc600" stroke-width="2" stroke-linecap="round"/></g></g></svg>