<svg version="1.1" xmlns="http://www.w3.org/2000/svg" xmlns:xlink="http://www.w3.org/1999/xlink" width="57.93513" height="92.57095" viewBox="0,0,57.93513,92.57095"><defs><linearGradient x1="213.28937" y1="176.14601" x2="268.07064" y2="176.14601" gradientUnits="userSpaceOnUse" id="color-1"><stop offset="0" stop-color="#ff7600"/><stop offset="1" stop-color="#ff3c00"/></linearGradient><linearGradient x1="216.70236" y1="176.14601" x2="264.65463" y2="176.14601" gradientUnits="userSpaceOnUse" id="color-2"><stop offset="0" stop-color="#ff7600"/><stop offset="1" stop-color="#ff3c00"/></linearGradient></defs><g transform="translate(-210.82543,-129.10277)"><g data-paper-data="{&quot;isPaintingLayer&quot;:true}" fill-rule="nonzero" stroke-linejoin="miter" stroke-miterlimit="10" stroke-dasharray="" stroke-dashoffset="0" style="mix-blend-mode: normal"><path d="M259.47839,130.67281c4.75199,0.00704 8.59928,3.86674 8.59224,8.61774l-0.10931,73.79192c-0.00704,4.75199 -3.86674,8.59828 -8.61774,8.59124l-37.46296,-0.0555c-4.75199,-0.00704 -8.59828,-3.86474 -8.59124,-8.61674l0.10931,-73.79092c0.00704,-4.75399 3.86474,-8.59928 8.61674,-8.59224l37.46296,0.0555z" fill="url(#color-1)" stroke="none" stroke-width="1" stroke-linecap="butt"/><path d="M222.01037,134.03231l37.46196,0.05549c2.862,0.00424 5.18655,2.33469 5.1823,5.19868l-0.10931,73.79092c-0.00424,2.861 -2.33569,5.18655 -5.19768,5.18231l-37.46296,-0.0555c-2.862,-0.00424 -5.18654,-2.33669 -5.18231,-5.19768l0.10931,-73.79092c0.00424,-2.864 2.33669,-5.18754 5.19868,-5.1833z" fill="url(#color-2)" stroke="none" stroke-width="1" stroke-linecap="butt"/><path d="M241.87658,172.4417l-1.26292,-40.83893" fill="none" stroke="#000000" stroke-width="5" stroke-linecap="round"/><path d="M213.32543,174.47907l52.93513,1.21278" fill="none" stroke="#000000" stroke-width="5" stroke-linecap="round"/></g></g></svg>