<svg version="1.1" xmlns="http://www.w3.org/2000/svg" xmlns:xlink="http://www.w3.org/1999/xlink" width="475.97597" height="199.35435" viewBox="0,0,475.97597,199.35435"><g transform="translate(-0.75076,-81.82291)"><g data-paper-data="{&quot;isPaintingLayer&quot;:true}" fill-rule="nonzero" stroke-linejoin="miter" stroke-miterlimit="10" stroke-dasharray="" stroke-dashoffset="0" style="mix-blend-mode: normal"><path d="M0.75076,281.17727v-199.35435h475.97597v199.35435z" fill="#0800ff" stroke="none" stroke-width="0" stroke-linecap="butt"/><path d="M254.74935,127.79668c0,9.66498 -4.92487,17.5 -11,17.5c-6.07513,0 -11,-7.83502 -11,-17.5c0,-9.66498 4.92487,-17.5 11,-17.5c6.07513,0 11,7.83502 11,17.5z" fill="#00ffda" stroke="#ffc600" stroke-width="5" stroke-linecap="butt"/><path d="M255.74935,231.2967l-23,-17l4,-69" fill="none" stroke="#ffc600" stroke-width="5" stroke-linecap="round"/><path d="M237.74935,161.29665l14,-1l-4,16l-13,2" fill="none" stroke="#ffc600" stroke-width="5" stroke-linecap="round"/><path d="M234.74935,214.2967l-11,19" fill="none" stroke="#ffc600" stroke-width="5" stroke-linecap="round"/><text transform="translate(183.98198,265.30611) scale(0.75025,0.75025)" font-size="40" xml:space="preserve" fill="#e8ff00" fill-rule="nonzero" stroke="none" stroke-width="1" stroke-linecap="butt" stroke-linejoin="miter" stroke-miterlimit="10" stroke-dasharray="" stroke-dashoffset="0" font-family="Marker" font-weight="normal" text-anchor="start" style="mix-blend-mode: normal"><tspan x="0" dy="0">LIMITED</tspan></text><path d="M114.62463,267.53756l-19.51952,-45.04504l27.02703,13.51352l-6.00601,-31.53153l31.53153,28.52853" fill="none" stroke="#0800ff" stroke-width="3" stroke-linecap="round"/><path d="M150.66066,153.42345l15.01502,52.55255l-39.03904,-19.51952" fill="none" stroke="#0800ff" stroke-width="3" stroke-linecap="round"/><path d="M192.70271,168.43847l-31.53154,-30.03003l1.50151,-18.01802h12.01201v16.51652v15.01501" fill="none" stroke="#0800ff" stroke-width="3" stroke-linecap="round"/><path d="M306.81682,106.8769l54.05406,4.5045l-18.01802,81.08108" fill="none" stroke="#0800ff" stroke-width="3" stroke-linecap="round"/><path d="M294.80481,118.88893l43.54354,63.06306" fill="none" stroke="#0800ff" stroke-width="3" stroke-linecap="round"/><path d="M353.36336,142.91294l-42.04204,-19.51952" fill="none" stroke="#0800ff" stroke-width="3" stroke-linecap="round"/><path d="M402.91291,144.41445l10.51051,-9.00901h18.01802l-54.05405,66.06607" fill="none" stroke="#0800ff" stroke-width="3" stroke-linecap="round"/></g></g></svg>