<svg version="1.1" xmlns="http://www.w3.org/2000/svg" xmlns:xlink="http://www.w3.org/1999/xlink" width="632" height="378" viewBox="0,0,632,378"><defs><radialGradient cx="222.69258" cy="67.73398" r="44.11765" gradientUnits="userSpaceOnUse" id="color-1"><stop offset="0" stop-color="#0014ff"/><stop offset="1" stop-color="#ff0021"/></radialGradient><linearGradient x1="193.51442" y1="177.10001" x2="248.51442" y2="177.10001" gradientUnits="userSpaceOnUse" id="color-2"><stop offset="0" stop-color="#ff0000"/><stop offset="1" stop-color="#0012ff"/></linearGradient></defs><g transform="translate(58.18977,7.76602)"><g data-paper-data="{&quot;isPaintingLayer&quot;:true}" fill-rule="nonzero" stroke-linejoin="miter" stroke-miterlimit="10" stroke-dasharray="" stroke-dashoffset="0" style="mix-blend-mode: normal"><path d="M310.81023,109.23398v-9h4v9z" fill="#ffde00" stroke="none" stroke-width="0" stroke-linecap="butt"/><path d="M-29.18977,277.23398v-285h516v285z" fill="#00fff1" stroke="none" stroke-width="0" stroke-linecap="butt"/><path d="M354.31023,349.23398c-52.19091,0 -94.5,-44.77153 -94.5,-100c0,-55.22847 42.30909,-100 94.5,-100c52.19091,0 94.5,44.77153 94.5,100c0,55.22847 -42.30909,100 -94.5,100z" fill="#5f5f5f" stroke="none" stroke-width="0" stroke-linecap="butt"/><path d="M67.81023,265.23398v-202h103v202z" fill="#ffde00" stroke="none" stroke-width="0" stroke-linecap="butt"/><path d="M178.57494,89.35163l38.82353,-44.11765l49.41176,45z" fill="url(#color-1)" stroke="#0029ff" stroke-width="0.5" stroke-linecap="round"/><path d="M93.81023,261.23398v-73h43v73z" fill="#382a00" stroke="none" stroke-width="0" stroke-linecap="butt"/><path d="M193.51442,264.60001v-175h55v175z" fill="url(#color-2)" stroke="none" stroke-width="0" stroke-linecap="butt"/><path d="M128.81023,232.73398c0,1.38071 -1.34315,2.5 -3,2.5c-1.65685,0 -3,-1.11929 -3,-2.5c0,-1.38071 1.34315,-2.5 3,-2.5c1.65685,0 3,1.11929 3,2.5z" fill="#000000" stroke="none" stroke-width="0" stroke-linecap="butt"/><path d="M-58.18977,370.23398v-111h632v111z" fill="#000000" stroke="none" stroke-width="0" stroke-linecap="butt"/><path d="M323.81023,329.23398v-38h135v38z" fill="#ffffff" stroke="none" stroke-width="0" stroke-linecap="butt"/><path d="M196.81023,331.23398v-40h118v40z" fill="#ffffff" stroke="none" stroke-width="0" stroke-linecap="butt"/><path d="M41.81023,329.23398v-38h119v38z" fill="#ffffff" stroke="none" stroke-width="0" stroke-linecap="butt"/><path d="M323.81023,263.23398v-72h41v72z" fill="#000000" stroke="none" stroke-width="0" stroke-linecap="butt"/><path d="M356.81023,231.23398c0,1.10457 -2.23858,2 -5,2c-2.76142,0 -5,-0.89543 -5,-2c0,-1.10457 2.23858,-2 5,-2c2.76142,0 5,0.89543 5,2z" fill="#0e0000" stroke="none" stroke-width="0" stroke-linecap="butt"/></g></g></svg>