<svg version="1.1" xmlns="http://www.w3.org/2000/svg" xmlns:xlink="http://www.w3.org/1999/xlink" width="92.54309" height="57.93687" viewBox="0,0,92.54309,57.93687"><defs><linearGradient x1="195.169" y1="176.156" x2="286.17" y2="176.156" gradientUnits="userSpaceOnUse" id="color-1"><stop offset="0" stop-color="#ff7100"/><stop offset="1" stop-color="#ff4000"/></linearGradient><linearGradient x1="198.583" y1="176.1545" x2="282.755" y2="176.1545" gradientUnits="userSpaceOnUse" id="color-2"><stop offset="0" stop-color="#ff7100"/><stop offset="1" stop-color="#ff4000"/></linearGradient></defs><g transform="translate(-195.169,-146.29898)"><g data-paper-data="{&quot;isPaintingLayer&quot;:true}" fill-rule="nonzero" stroke-linejoin="miter" stroke-miterlimit="10" stroke-dasharray="" stroke-dashoffset="0" style="mix-blend-mode: normal"><path d="M286.17,194.887c0,4.752 -3.854,8.605 -8.605,8.605h-73.792c-4.752,0 -8.604,-3.854 -8.604,-8.605v-37.463c0,-4.752 3.852,-8.604 8.604,-8.604h73.791c4.754,0 8.605,3.852 8.605,8.604v37.463z" fill="url(#color-1)" stroke="none" stroke-width="1" stroke-linecap="butt"/><path d="M282.755,157.424v37.462c0,2.862 -2.327,5.19 -5.191,5.19h-73.791c-2.861,0 -5.19,-2.328 -5.19,-5.19v-37.463c0,-2.862 2.329,-5.19 5.19,-5.19h73.791c2.864,0 5.191,2.329 5.191,5.191z" fill="url(#color-2)" stroke="none" stroke-width="1" stroke-linecap="butt"/><path d="M244.37508,177.34708l40.83701,-1.32342" fill="none" stroke="#000000" stroke-width="5" stroke-linecap="round"/><path d="M242.29542,148.79898l-1.13436,52.93687" fill="none" stroke="#000000" stroke-width="5" stroke-linecap="round"/></g></g></svg>