<svg version="1.1" xmlns="http://www.w3.org/2000/svg" xmlns:xlink="http://www.w3.org/1999/xlink" width="604" height="483.96923" viewBox="0,0,604,483.96923"><defs><linearGradient x1="402.12385" y1="242.64284" x2="401.23656" y2="151.64716" gradientUnits="userSpaceOnUse" id="color-1"><stop offset="0.012" stop-color="#66b3e3"/><stop offset="1" stop-color="#1c75bc"/></linearGradient></defs><g transform="translate(53.62126,20.7)"><g data-paper-data="{&quot;isPaintingLayer&quot;:true}" fill-rule="nonzero" stroke-linejoin="miter" stroke-miterlimit="10" stroke-dasharray="" stroke-dashoffset="0" style="mix-blend-mode: normal"><path d="M-53.62126,359.30001v-380h604v380z" fill="#000000" stroke="none" stroke-width="0" stroke-linecap="butt"/><path d="M99.1421,460.51924v-9.00901h10.51051v9.00901z" fill="none" stroke="#585e61" stroke-width="5.5" stroke-linecap="butt"/><text transform="translate(100.6436,46.4802) scale(1.24831,1.24831)" font-size="40" xml:space="preserve" fill="#ffde00" fill-rule="nonzero" stroke="none" stroke-width="1" stroke-linecap="butt" stroke-linejoin="miter" stroke-miterlimit="10" stroke-dasharray="" stroke-dashoffset="0" font-family="Pixel" font-weight="normal" text-anchor="start" style="mix-blend-mode: normal"><tspan x="0" dy="0">COIN VERSE</tspan></text><path d="M33.37874,280.30001v-217h142v217z" fill="#696969" stroke="none" stroke-width="0" stroke-linecap="butt"/><path d="M325.37874,278.30001v-217h142v217z" fill="#696969" stroke="none" stroke-width="0" stroke-linecap="butt"/><path d="M110.74935,173.79667c0,9.66498 -4.92487,17.5 -11,17.5c-6.07513,0 -11,-7.83502 -11,-17.5c0,-9.66498 4.92487,-17.5 11,-17.5c6.07513,0 11,7.83502 11,17.5z" fill="#1000ff" stroke="#fa0000" stroke-width="5" stroke-linecap="butt"/><path d="M111.74935,277.29667l-23,-17l4,-69" fill="none" stroke="#fa0000" stroke-width="5" stroke-linecap="round"/><path d="M93.74935,207.29667l14,-1l-4,16l-13,2" fill="none" stroke="#fa0000" stroke-width="5" stroke-linecap="round"/><path d="M90.74935,260.29667l-11,19" fill="none" stroke="#fa0000" stroke-width="5" stroke-linecap="round"/><text transform="translate(61.37874,103.30001) scale(0.5,0.5)" font-size="40" xml:space="preserve" fill="#ffcc00" fill-rule="nonzero" stroke="none" stroke-width="1" stroke-linecap="butt" stroke-linejoin="miter" stroke-miterlimit="10" stroke-dasharray="" stroke-dashoffset="0" font-family="Pixel" font-weight="normal" text-anchor="start" style="mix-blend-mode: normal"><tspan x="0" dy="0">MASTER</tspan></text><text transform="translate(374.37874,99.30001) scale(0.5,0.5)" font-size="40" xml:space="preserve" fill="#ffcc00" fill-rule="nonzero" stroke="none" stroke-width="1" stroke-linecap="butt" stroke-linejoin="miter" stroke-miterlimit="10" stroke-dasharray="" stroke-dashoffset="0" font-family="Pixel" font-weight="normal" text-anchor="start" style="mix-blend-mode: normal"><tspan x="0" dy="0">CARS</tspan></text><g><path d="M419.96647,151.46443c4.75177,-0.04633 8.64217,3.76991 8.68849,8.52069l0.7195,73.78849c0.04633,4.75177 -3.76992,8.64117 -8.5207,8.68749l-37.46122,0.36528c-4.75177,0.04633 -8.64115,-3.76792 -8.68748,-8.5197l-0.71949,-73.78749c-0.04635,-4.75377 3.76791,-8.64215 8.51969,-8.68848l37.46122,-0.36528z" data-paper-data="{&quot;index&quot;:null}" fill="url(#color-1)" stroke="none" stroke-width="1" stroke-linecap="butt"/><path d="M382.53855,155.24454l37.46022,-0.36527c2.86186,-0.02791 5.21244,2.27628 5.24037,5.14015l0.71949,73.78749c0.0279,2.86086 -2.27728,5.21245 -5.13915,5.24036l-37.46122,0.36528c-2.86186,0.02791 -5.21246,-2.27828 -5.24036,-5.13915l-0.71949,-73.78749c-0.02793,-2.86386 2.27827,-5.21346 5.14014,-5.24137z" data-paper-data="{&quot;index&quot;:null}" fill="#27aae1" stroke="none" stroke-width="1" stroke-linecap="butt"/><path d="M401.11337,152.60622l1.72154,40.82216" data-paper-data="{&quot;index&quot;:null}" fill="none" stroke="#000000" stroke-width="5" stroke-linecap="round"/><path d="M374.30844,195.7863l52.94541,0.61815" data-paper-data="{&quot;index&quot;:null}" fill="none" stroke="#000000" stroke-width="5" stroke-linecap="round"/></g></g></g></svg>